<svg width="15" height="15" viewBox="0 0 15 15" fill="none" xmlns="http://www.w3.org/2000/svg">
<path d="M8.125 12.5V13.125C8.125 13.3021 8.065 13.4506 7.945 13.5706C7.825 13.6906 7.67667 13.7504 7.5 13.75C7.32292 13.75 7.17458 13.69 7.055 13.57C6.93542 13.45 6.87542 13.3017 6.875 13.125V10.625C6.875 10.4479 6.935 10.2996 7.055 10.18C7.175 10.0604 7.32333 10.0004 7.5 10C7.67708 10 7.82563 10.06 7.94563 10.18C8.06563 10.3 8.12542 10.4483 8.125 10.625V11.25H12.5C12.6771 11.25 12.8256 11.31 12.9456 11.43C13.0656 11.55 13.1254 11.6983 13.125 11.875C13.125 12.0521 13.065 12.2006 12.945 12.3206C12.825 12.4406 12.6767 12.5004 12.5 12.5H8.125ZM2.5 12.5C2.32292 12.5 2.17458 12.44 2.055 12.32C1.93542 12.2 1.87542 12.0517 1.875 11.875C1.875 11.6979 1.935 11.5496 2.055 11.43C2.175 11.3104 2.32333 11.2504 2.5 11.25H5C5.17708 11.25 5.32563 11.31 5.44563 11.43C5.56563 11.55 5.62542 11.6983 5.625 11.875C5.625 12.0521 5.565 12.2006 5.445 12.3206C5.325 12.4406 5.17667 12.5004 5 12.5H2.5ZM6 6.82812H9.01562L9.54688 8.35938C9.58854 8.47396 9.66146 8.56771 9.76562 8.64062C9.86979 8.71354 9.98438 8.75 10.1094 8.75C10.3177 8.75 10.4844 8.66146 10.6094 8.48438C10.7344 8.30729 10.7552 8.11979 10.6719 7.92188L8.32812 1.65625C8.27604 1.53125 8.19792 1.43229 8.09375 1.35937C7.98958 1.28646 7.86979 1.25 7.73438 1.25H7.26562C7.13021 1.25 7.01042 1.28646 6.90625 1.35937C6.80208 1.43229 6.72396 1.53125 6.67188 1.65625L4.3125 7.9375C4.23958 8.13542 4.26312 8.32042 4.38313 8.4925C4.50313 8.66458 4.66708 8.75042 4.875 8.75C5.01042 8.75 5.12771 8.71354 5.22687 8.64062C5.32604 8.56771 5.40146 8.46875 5.45313 8.34375L6 6.82812ZM6.375 5.75L7.46875 2.64062H7.53125L8.625 5.75H6.375Z" fill="#C8CAD9"/>
</svg>
