<svg width="15" height="15" viewBox="0 0 15 15" fill="none" xmlns="http://www.w3.org/2000/svg">
<g clip-path="url(#clip0_476_92)">
<path d="M7.5 1C6.21442 1 4.95772 1.38122 3.8888 2.09545C2.81988 2.80968 1.98676 3.82484 1.49479 5.01256C1.00282 6.20028 0.874095 7.50721 1.1249 8.76809C1.3757 10.029 1.99477 11.1872 2.90381 12.0962C3.81285 13.0052 4.97104 13.6243 6.23191 13.8751C7.49279 14.1259 8.79972 13.9972 9.98744 13.5052C11.1752 13.0132 12.1903 12.1801 12.9046 11.1112C13.6188 10.0423 14 8.78558 14 7.5C13.9983 5.77661 13.313 4.12428 12.0943 2.90566C10.8757 1.68704 9.22339 1.00168 7.5 1ZM5.18537 9.1678C5.18537 9.30235 5.13192 9.43139 5.03678 9.52653C4.94164 9.62167 4.8126 9.67512 4.67805 9.67512C4.5435 9.67512 4.41446 9.62167 4.31932 9.52653C4.22418 9.43139 4.17073 9.30235 4.17073 9.1678V5.83854C4.17073 5.70399 4.22418 5.57495 4.31932 5.47981C4.41446 5.38467 4.5435 5.33122 4.67805 5.33122C4.8126 5.33122 4.94164 5.38467 5.03678 5.47981C5.13192 5.57495 5.18537 5.70399 5.18537 5.83854V9.1678ZM8.03903 10.2522C8.03903 10.3867 7.98558 10.5158 7.89044 10.6109C7.7953 10.7061 7.66626 10.7595 7.53171 10.7595C7.39716 10.7595 7.26812 10.7061 7.17298 10.6109C7.07784 10.5158 7.02439 10.3867 7.02439 10.2522V4.7478C7.02439 4.61326 7.07784 4.48422 7.17298 4.38908C7.26812 4.29394 7.39716 4.24049 7.53171 4.24049C7.66626 4.24049 7.7953 4.29394 7.89044 4.38908C7.98558 4.48422 8.03903 4.61326 8.03903 4.7478V10.2522ZM10.8927 9.1678C10.8927 9.30235 10.8392 9.43139 10.7441 9.52653C10.649 9.62167 10.5199 9.67512 10.3854 9.67512C10.2508 9.67512 10.1218 9.62167 10.0266 9.52653C9.9315 9.43139 9.87805 9.30235 9.87805 9.1678V5.83854C9.87805 5.70399 9.9315 5.57495 10.0266 5.47981C10.1218 5.38467 10.2508 5.33122 10.3854 5.33122C10.5199 5.33122 10.649 5.38467 10.7441 5.47981C10.8392 5.57495 10.8927 5.70399 10.8927 5.83854V9.1678Z" fill="#C8CAD9"/>
</g>
<defs>
<clipPath id="clip0_476_92">
<rect width="15" height="15" fill="white"/>
</clipPath>
</defs>
</svg>
