            <svg
              className="bi bi-camera"
              fill="rgba(0,0,0,0.4)"
              height="110"
              viewBox="0 0 20 20"
              width="110"
              xmlns="http://www.w3.org/2000/svg"
            >
              <rect
                fill="none"
                height="100%"
                stroke="rgba(0,0,0,0.3)"
                width="100%"
              />
              <g transform="scale(0.5) translate(12.5, 11.5)">
                <path d="M15 12a1 1 0 0 1-1 1H2a1 1 0 0 1-1-1V6a1 1 0 0 1 1-1h1.172a3 3 0 0 0 2.12-.879l.83-.828A1 1 0 0 1 6.827 3h2.344a1 1 0 0 1 .707.293l.828.828A3 3 0 0 0 12.828 5H14a1 1 0 0 1 1 1zM2 4a2 2 0 0 0-2 2v6a2 2 0 0 0 2 2h12a2 2 0 0 0 2-2V6a2 2 0 0 0-2-2h-1.172a2 2 0 0 1-1.414-.586l-.828-.828A2 2 0 0 0 9.172 2H6.828a2 2 0 0 0-1.414.586l-.828.828A2 2 0 0 1 3.172 4z" />
                <path d="M8 11a2.5 2.5 0 1 1 0-5 2.5 2.5 0 0 1 0 5m0 1a3.5 3.5 0 1 0 0-7 3.5 3.5 0 0 0 0 7M3 6.5a.5.5 0 1 1-1" />
              </g>
            </svg>