<svg width="15" height="15" viewBox="0 0 15 15" fill="none" xmlns="http://www.w3.org/2000/svg">
<path d="M2.5 5H8.125M10.625 5H12.5M6.875 10H12.5M2.5 10H4.375" stroke="#C8CAD9" stroke-width="1.5" stroke-linecap="round" stroke-linejoin="round"/>
<path d="M5.625 11.25C6.31536 11.25 6.875 10.6904 6.875 10C6.875 9.30964 6.31536 8.75 5.625 8.75C4.93464 8.75 4.375 9.30964 4.375 10C4.375 10.6904 4.93464 11.25 5.625 11.25Z" stroke="#C8CAD9" stroke-width="1.5"/>
<path d="M9.375 6.25C10.0654 6.25 10.625 5.69036 10.625 5C10.625 4.30964 10.0654 3.75 9.375 3.75C8.68464 3.75 8.125 4.30964 8.125 5C8.125 5.69036 8.68464 6.25 9.375 6.25Z" stroke="#C8CAD9" stroke-width="1.5"/>
</svg>
