<svg width="14" height="14" viewBox="0 0 14 14" fill="none" xmlns="http://www.w3.org/2000/svg">
<g clip-path="url(#clip0_476_125)">
<path d="M2.91699 2.04175C2.68493 2.04175 2.46237 2.13394 2.29827 2.29803C2.13418 2.46212 2.04199 2.68468 2.04199 2.91675C2.04199 3.14881 2.13418 3.37137 2.29827 3.53547C2.46237 3.69956 2.68493 3.79175 2.91699 3.79175H6.12533V11.6667C6.12533 11.8988 6.21751 12.1214 6.38161 12.2855C6.5457 12.4496 6.76826 12.5417 7.00033 12.5417C7.23239 12.5417 7.45495 12.4496 7.61904 12.2855C7.78314 12.1214 7.87533 11.8988 7.87533 11.6667V3.79175H11.0837C11.3157 3.79175 11.5383 3.69956 11.7024 3.53547C11.8665 3.37137 11.9587 3.14881 11.9587 2.91675C11.9587 2.68468 11.8665 2.46212 11.7024 2.29803C11.5383 2.13394 11.3157 2.04175 11.0837 2.04175H2.91699Z" fill="#C8CAD9"/>
</g>
<defs>
<clipPath id="clip0_476_125">
<rect width="14" height="14" fill="white"/>
</clipPath>
</defs>
</svg>
