<svg width="15" height="15" viewBox="0 0 15 15" fill="none" xmlns="http://www.w3.org/2000/svg">
<path d="M11.0938 1.875C11.6325 1.875 12.1491 2.08901 12.5301 2.46994C12.911 2.85087 13.125 3.36753 13.125 3.90625L13.125 11.0938C13.125 11.6325 12.911 12.1491 12.5301 12.5301C12.1491 12.911 11.6325 13.125 11.0937 13.125L7.96875 13.125L7.96875 1.875L11.0938 1.875ZM7.03125 1.875L3.90625 1.875C3.36753 1.875 2.85087 2.08901 2.46994 2.46994C2.08901 2.85087 1.875 3.36753 1.875 3.90625L1.875 11.0937C1.875 11.6325 2.08901 12.1491 2.46994 12.5301C2.85087 12.911 3.36753 13.125 3.90625 13.125L7.03125 13.125L7.03125 1.875Z" fill="#C8CAD9"/>
</svg>
