<svg width="13" height="14" viewBox="0 0 13 14" fill="none" xmlns="http://www.w3.org/2000/svg">
<path d="M1.73332 10.8298C1.73332 11.604 2.22647 12.234 2.83329 12.234C2.96774 12.2313 3.10026 12.2 3.22276 12.1421C3.34526 12.0842 3.45519 12.0008 3.54583 11.897C3.61309 11.8236 3.70551 11.7812 3.80275 11.7789C3.89999 11.7767 3.99409 11.815 4.06435 11.8852C4.13461 11.9555 4.17527 12.052 4.17739 12.1536C4.17951 12.2551 4.14292 12.3534 4.07566 12.4268C3.91679 12.6056 3.72467 12.7486 3.51106 12.8472C3.29744 12.9458 3.06681 12.9978 2.83329 13C1.82254 13 1 12.0266 1 10.8298C1 9.63298 1.82254 8.65957 2.83329 8.65957C3.0669 8.66199 3.29758 8.71418 3.5112 8.81296C3.72483 8.91174 3.9169 9.05502 4.07566 9.23404C4.10896 9.27038 4.13509 9.31321 4.15254 9.3601C4.17 9.40698 4.17844 9.45699 4.17739 9.50729C4.17634 9.55758 4.16582 9.60716 4.14642 9.6532C4.12703 9.69925 4.09914 9.74085 4.06435 9.77564C4.02956 9.81042 3.98855 9.83771 3.94367 9.85595C3.89878 9.87418 3.8509 9.883 3.80275 9.8819C3.7546 9.88081 3.70713 9.86981 3.66305 9.84956C3.61897 9.8293 3.57914 9.80017 3.54583 9.76383C3.45529 9.65985 3.34542 9.57622 3.22291 9.51806C3.1004 9.45989 2.96783 9.42841 2.83329 9.42553C2.22647 9.42553 1.73332 10.0549 1.73332 10.8298ZM6.68321 10.3977C6.02017 10.1979 5.86434 10.0983 5.88878 9.89277C5.89215 9.82819 5.9098 9.76531 5.94033 9.70905C5.97087 9.6528 6.01346 9.60469 6.06478 9.56851C6.40638 9.3266 7.14398 9.45234 7.37497 9.51489C7.42192 9.52904 7.4711 9.53325 7.51962 9.52727C7.56815 9.52129 7.61504 9.50523 7.65754 9.48005C7.70004 9.45487 7.73729 9.42107 7.76711 9.38064C7.79693 9.34021 7.81871 9.29396 7.83117 9.24462C7.84363 9.19527 7.84653 9.14382 7.83968 9.09328C7.83284 9.04275 7.81639 8.99416 7.79131 8.95036C7.76623 8.90656 7.73303 8.86843 7.69364 8.83823C7.65426 8.80802 7.60949 8.78635 7.56197 8.77447C7.43975 8.74064 6.33427 8.45532 5.65534 8.93277C5.51741 9.03025 5.40164 9.15818 5.31622 9.30752C5.23079 9.45685 5.17779 9.62395 5.16097 9.79702C5.05158 10.7028 5.91078 10.9619 6.4791 11.1336C7.21976 11.357 7.38231 11.4738 7.34747 11.7566C7.34415 11.8243 7.32587 11.8903 7.29406 11.9495C7.26226 12.0086 7.2178 12.0592 7.16414 12.0974C6.82193 12.3355 6.09595 12.2021 5.86984 12.137C5.82229 12.1186 5.7716 12.1107 5.72098 12.1139C5.67036 12.117 5.62091 12.131 5.57575 12.1551C5.5306 12.1792 5.49072 12.2128 5.45863 12.2538C5.42654 12.2948 5.40295 12.3424 5.38934 12.3934C5.37573 12.4444 5.37239 12.4978 5.37955 12.5502C5.38671 12.6027 5.4042 12.653 5.43093 12.698C5.45765 12.743 5.49302 12.7817 5.5348 12.8118C5.57659 12.8418 5.62387 12.8624 5.67368 12.8723C5.96622 12.9539 6.2674 12.9967 6.57016 13C6.90565 13 7.27598 12.9394 7.56991 12.7357C7.71157 12.637 7.83055 12.5068 7.91835 12.3544C8.00615 12.202 8.06058 12.0312 8.07774 11.8543C8.20057 10.8547 7.28942 10.5796 6.68321 10.397V10.3977ZM10.5942 10.3977C9.9312 10.1979 9.77476 10.0983 9.79981 9.89277C9.80332 9.82823 9.82102 9.7654 9.85155 9.70917C9.88207 9.65293 9.92459 9.6048 9.97581 9.56851C10.318 9.3266 11.0544 9.4517 11.286 9.51489C11.3796 9.53971 11.4788 9.52493 11.5621 9.47377C11.6454 9.42261 11.7059 9.3392 11.7306 9.24166C11.7553 9.14413 11.7422 9.04035 11.6941 8.95287C11.646 8.86539 11.5667 8.80128 11.4736 8.77447C11.3514 8.74 10.2453 8.45532 9.56637 8.93277C9.42861 9.03038 9.313 9.15836 9.22769 9.30768C9.14238 9.45699 9.08944 9.62403 9.07261 9.79702C8.96261 10.7028 9.82181 10.9619 10.3907 11.1336C11.1314 11.357 11.2933 11.4738 11.2585 11.7566C11.2554 11.8244 11.2372 11.8905 11.2053 11.9496C11.1735 12.0088 11.129 12.0594 11.0752 12.0974C10.7323 12.3355 10.007 12.2021 9.78026 12.137C9.6899 12.119 9.59635 12.1371 9.51817 12.1877C9.43999 12.2383 9.38288 12.3178 9.35819 12.4104C9.3335 12.5029 9.34302 12.6018 9.38486 12.6874C9.42671 12.773 9.49782 12.839 9.58409 12.8723C9.87685 12.9538 10.1782 12.9967 10.4812 13C10.8167 13 11.1864 12.9394 11.4809 12.7357C11.6226 12.637 11.7416 12.5068 11.8294 12.3544C11.9172 12.202 11.9716 12.0312 11.9888 11.8543C12.1116 10.8547 11.1998 10.5796 10.5942 10.397V10.3977ZM11.2664 5.34043H8.21096C8.11371 5.34043 8.02045 5.30008 7.95169 5.22825C7.88293 5.15643 7.8443 5.05902 7.8443 4.95745V1.76596H2.34442C2.312 1.76596 2.28091 1.77941 2.25799 1.80335C2.23507 1.82729 2.2222 1.85976 2.2222 1.89362V6.48936C2.2222 6.59093 2.18357 6.68835 2.1148 6.76017C2.04604 6.83199 1.95278 6.87234 1.85554 6.87234C1.75829 6.87234 1.66503 6.83199 1.59627 6.76017C1.52751 6.68835 1.48888 6.59093 1.48888 6.48936V1.89362C1.48888 1.65662 1.57902 1.42932 1.73946 1.26173C1.8999 1.09415 2.11751 1 2.34442 1H8.21096C8.30817 1.00009 8.40137 1.0405 8.47006 1.11234L11.8922 4.68681C11.961 4.75856 11.9997 4.85591 11.9998 4.95745V6.48936C11.9998 6.59093 11.9611 6.68835 11.8924 6.76017C11.8236 6.83199 11.7303 6.87234 11.6331 6.87234C11.5359 6.87234 11.4426 6.83199 11.3738 6.76017C11.3051 6.68835 11.2664 6.59093 11.2664 6.48936V5.34043ZM10.747 4.57447L8.57762 2.30723V4.57447H10.747Z" fill="#C8CAD9" stroke="#C8CAD9" stroke-width="0.25"/>
</svg>
