<svg width="12" height="15" viewBox="0 0 12 15" fill="none" xmlns="http://www.w3.org/2000/svg">
<path d="M6 11.4286C6.39782 11.4286 6.77936 11.2781 7.06066 11.0102C7.34196 10.7422 7.5 10.3789 7.5 10C7.5 9.62112 7.34196 9.25776 7.06066 8.98985C6.77936 8.72194 6.39782 8.57143 6 8.57143C5.60218 8.57143 5.22064 8.72194 4.93934 8.98985C4.65804 9.25776 4.5 9.62112 4.5 10C4.5 10.3789 4.65804 10.7422 4.93934 11.0102C5.22064 11.2781 5.60218 11.4286 6 11.4286ZM10.5 5C10.8978 5 11.2794 5.15051 11.5607 5.41842C11.842 5.68633 12 6.04969 12 6.42857V13.5714C12 13.9503 11.842 14.3137 11.5607 14.5816C11.2794 14.8495 10.8978 15 10.5 15H1.5C1.10218 15 0.720644 14.8495 0.43934 14.5816C0.158035 14.3137 0 13.9503 0 13.5714V6.42857C0 6.04969 0.158035 5.68633 0.43934 5.41842C0.720644 5.15051 1.10218 5 1.5 5H2.25V3.57143C2.25 2.62423 2.64509 1.71582 3.34835 1.04605C4.05161 0.376274 5.00544 0 6 0C6.49246 0 6.98009 0.0923778 7.43506 0.271859C7.89003 0.45134 8.30343 0.714409 8.65165 1.04605C8.99987 1.37769 9.27609 1.7714 9.46455 2.2047C9.653 2.63801 9.75 3.10242 9.75 3.57143V5H10.5ZM6 1.42857C5.40326 1.42857 4.83097 1.65434 4.40901 2.0562C3.98705 2.45806 3.75 3.00311 3.75 3.57143V5H8.25V3.57143C8.25 3.00311 8.01295 2.45806 7.59099 2.0562C7.16903 1.65434 6.59674 1.42857 6 1.42857Z" fill="#C8CAD9"/>
</svg>
