<svg width="15" height="15" viewBox="0 0 15 15" fill="none" xmlns="http://www.w3.org/2000/svg">
<path d="M2 3.16667C2 2.59203 2.22827 2.04093 2.6346 1.6346C3.04093 1.22827 3.59203 1 4.16667 1H11.8333C12.408 1 12.9591 1.22827 13.3654 1.6346C13.7717 2.04093 14 2.59203 14 3.16667V6.5H2V3.16667ZM2 7.5V10.8333C2 11.408 2.22827 11.9591 2.6346 12.3654C3.04093 12.7717 3.59203 13 4.16667 13H11.8333C12.408 13 12.9591 12.7717 13.3654 12.3654C13.7717 11.9591 14 11.408 14 10.8333V7.5H2Z" fill="#C8CAD9"/>
</svg>
