<svg width="56" height="56" viewBox="0 0 56 56" fill="none" xmlns="http://www.w3.org/2000/svg">
<circle cx="28" cy="28" r="28" fill="#3F21BD"/>
<path fill-rule="evenodd" clip-rule="evenodd" d="M45.231 16.7393C45.7234 17.2124 46 17.8538 46 18.5226C46 19.1915 45.7234 19.8329 45.231 20.3059L25.545 39.2118C25.2849 39.4617 24.976 39.6599 24.6361 39.7951C24.2962 39.9304 23.9318 40 23.5638 40C23.1959 40 22.8315 39.9304 22.4916 39.7951C22.1517 39.6599 21.8428 39.4617 21.5826 39.2118L11.8018 29.8202C11.551 29.5875 11.3509 29.3092 11.2132 29.0015C11.0756 28.6937 11.0031 28.3628 11.0001 28.0278C10.9971 27.6929 11.0635 27.3608 11.1956 27.0508C11.3276 26.7408 11.5227 26.4592 11.7693 26.2224C12.0159 25.9855 12.3091 25.7982 12.6319 25.6714C12.9547 25.5446 13.3005 25.4808 13.6493 25.4837C13.998 25.4866 14.3426 25.5562 14.6631 25.6884C14.9835 25.8206 15.2733 26.0127 15.5156 26.2536L23.563 33.9821L41.5155 16.7393C41.7594 16.505 42.049 16.319 42.3678 16.1922C42.6865 16.0653 43.0282 16 43.3733 16C43.7183 16 44.06 16.0653 44.3787 16.1922C44.6975 16.319 44.9871 16.505 45.231 16.7393Z" fill="#F4F5FB"/>
</svg>
