<svg width="16" height="16" viewBox="0 0 16 16" fill="none" xmlns="http://www.w3.org/2000/svg">
<path d="M2.66667 2H6.66667C7.03333 2 7.33333 2.3 7.33333 2.66667V6.66667C7.33333 7.03333 7.03333 7.33333 6.66667 7.33333H2.66667C2.3 7.33333 2 7.03333 2 6.66667V2.66667C2 2.3 2.3 2 2.66667 2ZM9.33333 2H13.3333C13.7 2 14 2.3 14 2.66667V6.66667C14 7.03333 13.7 7.33333 13.3333 7.33333H9.33333C8.96667 7.33333 8.66667 7.03333 8.66667 6.66667V2.66667C8.66667 2.3 8.96667 2 9.33333 2ZM2.66667 8.66667H6.66667C7.03333 8.66667 7.33333 8.96667 7.33333 9.33333V13.3333C7.33333 13.7 7.03333 14 6.66667 14H2.66667C2.3 14 2 13.7 2 13.3333V9.33333C2 8.96667 2.3 8.66667 2.66667 8.66667ZM11.3333 8.66667C10.9667 8.66667 10.6667 8.96667 10.6667 9.33333V10.6667H9.33333C8.96667 10.6667 8.66667 10.9667 8.66667 11.3333C8.66667 11.7 8.96667 12 9.33333 12H10.6667V13.3333C10.6667 13.7 10.9667 14 11.3333 14C11.7 14 12 13.7 12 13.3333V12H13.3333C13.7 12 14 11.7 14 11.3333C14 10.9667 13.7 10.6667 13.3333 10.6667H12V9.33333C12 8.96667 11.7 8.66667 11.3333 8.66667Z" fill="#C8CAD9"/>
</svg>
